<svg xmlns="http://www.w3.org/2000/svg" width="30" height="40" viewBox="0 0 30 40">
  <path fill="#10BB8F" d="M40,26.6666667 L40,20 C40,14.4783333 35.5216667,10 30,10 C24.4783333,10 20,14.4783333 20,20 L20,26.6666667 L20,26.6666667 C17.2385763,26.6666667 15,28.9052429 15,31.6666667 L15,38.3333333 C15,44.7766554 20.2233446,50 26.6666667,50 L33.3333333,50 C39.7766554,50 45,44.7766554 45,38.3333333 L45,31.6666667 C45,28.9052429 42.7614237,26.6666667 40,26.6666667 Z M23.3333333,20 C23.3333333,16.3233333 26.3233333,13.3333333 30,13.3333333 C33.675,13.3333333 36.6666667,16.3233333 36.6666667,20 L36.6666667,26.6666667 L23.3333333,26.6666667 L23.3333333,20 Z M29.0133333,43.3333333 L24.2766667,38.74 L26.23,36.785 L29.0133333,39.4233333 L34.9533333,33.3333333 L36.91,35.2883333 L29.0133333,43.3333333 Z" transform="translate(-15 -10)"/>
</svg>
