<svg xmlns="http://www.w3.org/2000/svg" width="24" height="18" viewBox="0 0 24 18">
  <path fill="#22B009" fill-rule="evenodd" d="M5,15 L4,15 C3.448,15 3,14.552 3,14 L3,12 L15,12 L15,3 L19.667,3 C20.784,3 21.267,3.576 21.603,4.107 C22.197,5.047 23.139,6.539 23.712,7.485 C23.9,7.797 24,8.155 24,8.52 L24,13 C24,14.121 23.272,15 22,15 L21,15 C21,16.656 19.656,18 18,18 C16.344,18 15,16.656 15,15 L11,15 C11,16.656 9.656,18 8,18 C6.344,18 5,16.656 5,15 Z M8,13.8 C8.662,13.8 9.2,14.338 9.2,15 C9.2,15.662 8.662,16.2 8,16.2 C7.338,16.2 6.8,15.662 6.8,15 C6.8,14.338 7.338,13.8 8,13.8 Z M18,13.8 C18.662,13.8 19.2,14.338 19.2,15 C19.2,15.662 18.662,16.2 18,16.2 C17.338,16.2 16.8,15.662 16.8,15 C16.8,14.338 17.338,13.8 18,13.8 Z M8,5 L0,5 L0,3 L8,3 L8,2 L3,2 L3,1 C3,0.448 3.448,0 4,0 L13,0 C13.552,0 14,0.448 14,1 L14,11 L3,11 L3,8 L1,8 L1,6 L8,6 L8,5 Z M17,5 L17,8 L21.715,8 L20.288,5.504 C20.11,5.192 19.779,5 19.42,5 L17,5 Z"/>
</svg>
