<svg xmlns="http://www.w3.org/2000/svg" width="30" height="40" viewBox="0 0 30 40">
  <path fill="#10BB8F" d="M16.3676766,30.5033333 C15.7198804,30.715 15.0522537,30.2383333 15.0026774,29.5316667 L15.0026774,29.5233333 C14.967974,29.0133333 15.2736942,28.545 15.7413634,28.3916667 C20.4097928,26.8716667 23.954494,23.7166667 30.3085156,23.7166667 C35.8908004,23.7166667 39.4966457,27.0683333 43.9998209,28.97 C44.4774054,29.1716667 44.7748628,29.675 44.7285917,30.2133333 C44.6740578,30.9066667 43.9932107,31.3483333 43.3735077,31.0933333 C38.6604597,29.145 35.3272838,25.93 30.3085156,25.93 C24.4882649,25.93 21.2674618,28.9083333 16.3676766,30.5033333 Z M30.3085156,21.2833333 C35.4297413,21.2833333 39.2388492,23.9883333 43.3635925,25.8116667 C44.0576599,26.12 44.8128713,25.535 44.7385069,24.7566667 L44.7385069,24.7533333 C44.6971934,24.2866667 44.4129563,23.88 43.9998209,23.6933333 C39.8982132,21.845 35.9205461,19.0716667 30.3085156,19.0716667 C23.7049603,19.0716667 20.2676742,21.885 15.7876346,23.43 C15.3976348,23.565 15.1167028,23.9266667 15.0704316,24.355 L15.0704316,24.3633333 C14.9878045,25.1583333 15.7182278,25.7816667 16.4486511,25.53 C21.115428,23.9216667 24.2073329,21.2833333 30.3085156,21.2833333 Z M30.3085156,16.7483333 C34.7009706,16.7483333 38.5051208,18.315 41.927534,20.11 C42.3175338,20.315 42.7918132,20.2466667 43.1124062,19.935 C43.664355,19.405 43.5156263,18.4683333 42.8678301,18.1283333 C39.2338916,16.2183333 35.157072,14.5366667 30.3101682,14.5366667 C24.4816547,14.5366667 20.8658942,16.03 17.0303457,17.88 C16.3594139,18.2016667 16.1991174,19.1416667 16.7345408,19.6833333 C17.0485236,20 17.5128878,20.0816667 17.9078451,19.8916667 C21.637631,18.09 24.909663,16.7483333 30.3085156,16.7483333 Z M36.8509269,13.285 C37.351647,13.455 37.9614347,13.2166667 38.191138,12.72 C38.4142311,12.2366667 38.2886379,11.4866667 37.6292739,11.2266667 C35.4727074,10.3783333 33.0616496,10 30.3085156,10 C27.0315261,10 24.5741971,10.3983333 22.1714019,11.21 C21.5037752,11.435 21.3517414,12.2566667 21.5748345,12.7466667 C21.7995801,13.2416667 22.4192831,13.4433333 22.9200031,13.28 C25.1178832,12.5633333 27.3355937,12.2116667 30.3085156,12.2116667 C32.760887,12.2133333 34.8777925,12.6166667 36.8509269,13.285 Z M30.0969903,30.6866667 C33.996988,30.6866667 37.7565196,33.7533333 42.7885081,35.5766667 C43.3338467,35.7733333 43.9188464,35.43 44.0444395,34.8483333 C44.1766428,34.24 43.8543973,33.6283333 43.2925332,33.42 C38.4605022,31.625 34.5621571,28.475 30.0969903,28.475 C25.1707645,28.475 21.3038177,31.755 16.463524,33.1366667 C15.9165328,33.2933333 15.5876771,33.8716667 15.7149227,34.45 L15.7165753,34.455 C15.8520837,35.0633333 16.4420409,35.4333333 17.022083,35.2683333 C22.0276308,33.8366667 25.7904675,30.6866667 30.0969903,30.6866667 Z M29.885465,35.775 C33.3277087,35.775 37.0178336,37.9183333 41.4945682,39.6 C42.046517,39.8083333 42.6596099,39.515 42.8694826,38.94 C43.0727452,38.3733333 42.7951182,37.74 42.2497796,37.535 C37.773045,35.8533333 33.8284288,33.5616667 29.885465,33.5616667 C25.6714845,33.5616667 22.1598341,35.8783333 17.6764894,37.3233333 C17.0865321,37.5133333 16.7808119,38.19 17.0055576,38.7833333 L17.0072101,38.7883333 C17.2104727,39.3233333 17.7706842,39.6033333 18.2961924,39.4333333 C22.8753845,37.9633333 26.1755096,35.775 29.885465,35.775 Z M29.9912277,38.3183333 C26.4366112,38.3183333 23.1298759,39.7866667 19.4347934,41.1233333 C18.7969124,41.355 18.5308532,42.1416667 18.8778869,42.7383333 L18.8828446,42.7466667 C19.140641,43.19 19.6578865,43.3833333 20.1272082,43.2133333 C23.814028,41.88 26.8365262,40.53 29.9928802,40.53 C33.2219461,40.53 36.0808426,42.0633333 39.6470269,43.5733333 C40.1146961,43.77 40.6451619,43.5883333 40.9095685,43.1416667 L40.9095685,43.14 C41.2582548,42.5483333 41.0153312,41.765 40.3939756,41.5016667 C36.8443168,40 33.6780475,38.3183333 29.9912277,38.3183333 Z M21.9797071,44.6116667 C21.2591991,44.8883333 21.0542839,45.8533333 21.5930124,46.42 C21.8855122,46.73 22.3250882,46.8333333 22.715088,46.6833333 C24.9509765,45.825 27.2380937,45.2883333 29.9912277,45.2883333 C32.3295737,45.2883333 34.5522419,46.02 36.8889354,47.0816667 C37.2756301,47.2583333 37.7251213,47.1766667 38.0341465,46.8733333 C38.5860954,46.3333333 38.4307565,45.3733333 37.7300789,45.0566667 C35.2000381,43.91 32.67826,43.0766667 29.9895751,43.0766667 C26.9422888,43.075 24.4006802,43.6816667 21.9797071,44.6116667 Z M26.6415263,47.785 C26.0433063,47.9633333 25.6648744,48.5633333 25.8383912,49.18 C25.9738996,49.6666667 26.3986027,49.99 26.8332211,49.99 L27.0695345,49.9566667 C29.6557618,49.2116667 30.3514817,49.1516667 32.7691497,49.955 L33.0368614,50 C33.4516493,50 33.8433016,49.6983333 33.996988,49.27 C34.216776,48.6533333 33.8614796,48.0233333 33.2549969,47.805 C30.962922,46.975 29.2905501,46.995 26.6415263,47.785 Z" transform="translate(-15 -10)"/>
</svg>
