<svg xmlns="http://www.w3.org/2000/svg" width="16" height="16" viewBox="0 0 16 16">
  <path fill="#666" d="M0,17 L1.1300343,12.8913333 C0.432722086,11.6886667 0.0663149945,10.3253333 0.066984843,8.92733333 C0.0689943883,4.55666667 3.64263576,1 8.03349222,1 C10.1642801,1.00066667 12.1644475,1.82666667 13.6689271,3.32533333 C15.1727368,4.824 16.0006694,6.816 15.9999996,8.93466667 C15.99799,13.306 12.4243487,16.8626667 8.03349222,16.8626667 C6.70049384,16.862 5.38692107,16.5293333 4.22339435,15.8973333 L0,17 Z M4.41899009,14.462 C5.54165606,15.1253333 6.61341355,15.5226667 8.03081282,15.5233333 C11.6801471,15.5233333 14.6529344,12.5673333 14.6549439,8.93333333 C14.6562836,5.292 11.6975631,2.34 8.03617161,2.33866667 C4.38415797,2.33866667 1.41338019,5.29466667 1.41204049,8.928 C1.41137064,10.4113333 1.84811182,11.522 2.58159585,12.684 L1.91241727,15.116 L4.41899009,14.462 Z M12.0465542,10.8193333 C11.9969854,10.7366667 11.8643554,10.6873333 11.6647406,10.588 C11.4657956,10.4886667 10.487147,10.0093333 10.3042784,9.94333333 C10.1220796,9.87733333 9.98944963,9.844 9.8561498,10.0426667 C9.72351981,10.2406667 9.3417062,10.6873333 9.22582242,10.8193333 C9.10993865,10.9513333 8.99338502,10.968 8.79444003,10.8686667 C8.59549505,10.7693333 7.95378026,10.5606667 7.19350229,9.88533333 C6.60202612,9.36 6.20212661,8.71133333 6.08624283,8.51266667 C5.97035905,8.31466667 6.07418556,8.20733333 6.17332313,8.10866667 C6.26308282,8.02 6.37226811,7.87733333 6.47207553,7.76133333 C6.57322264,7.64666667 6.60604521,7.564 6.67303006,7.43133333 C6.73934505,7.29933333 6.70652248,7.18333333 6.65628385,7.084 C6.60604521,6.98533333 6.20815525,6.01 6.04270269,5.61333333 C5.88059937,5.22733333 5.7164865,5.27933333 5.59457409,5.27333333 L5.21276048,5.26666667 C5.08013049,5.26666667 4.8644393,5.316 4.68224052,5.51466667 C4.50004175,5.71333333 3.98559816,6.192 3.98559816,7.16733333 C3.98559816,8.14266667 4.69898673,9.08466667 4.7981243,9.21666667 C4.89793172,9.34866667 6.20145676,11.35 8.19827493,12.208 C8.67319747,12.412 9.0442935,12.534 9.33299817,12.6253333 C9.80993025,12.776 10.243992,12.7546667 10.5869544,12.704 C10.9694379,12.6473333 11.764548,12.2246667 11.9306704,11.762 C12.0967928,11.2986667 12.0967928,10.902 12.0465542,10.8193333 Z" transform="translate(0 -1)"/>
</svg>
