<?xml version="1.0" encoding="utf-8"?>
<!-- Generator: Adobe Illustrator 21.1.0, SVG Export Plug-In . SVG Version: 6.00 Build 0)  -->
<svg version="1.1" id="Layer_1" xmlns="http://www.w3.org/2000/svg" xmlns:xlink="http://www.w3.org/1999/xlink" x="0px" y="0px"
	 viewBox="0 0 455 106" style="enable-background:new 0 0 455 106;" xml:space="preserve">
<style type="text/css">
	.sitelock-red{fill:#C32026;}
</style>
<g>
	<g>
		<g>
			<path d="M94.6,67.3l12.7-1.1c0.8,3.8,2.3,6.6,4.6,8.4s5.5,2.7,9.4,2.7c4.2,0,7.3-0.8,9.5-2.4c2.1-1.6,3.2-3.5,3.2-5.6
				c0-1.4-0.4-2.5-1.3-3.5c-0.9-1-2.5-1.8-4.7-2.5c-1.5-0.5-5-1.3-10.4-2.5c-7-1.6-11.9-3.5-14.7-5.7c-4-3.2-5.9-7.1-5.9-11.7
				c0-3,0.9-5.7,2.8-8.3c1.9-2.6,4.5-4.5,8-5.9c3.5-1.3,7.7-2,12.7-2c8.1,0,14.2,1.6,18.3,4.8s6.2,7.4,6.4,12.8l-13,0.5
				c-0.6-3-1.8-5.1-3.6-6.4c-1.8-1.3-4.6-2-8.2-2c-3.8,0-6.7,0.7-8.9,2.1c-1.4,0.9-2.1,2.1-2.1,3.6c0,1.4,0.6,2.5,1.9,3.5
				c1.6,1.2,5.6,2.5,12,3.9c6.3,1.3,11,2.7,14,4.2c3,1.4,5.4,3.4,7.1,5.9c1.7,2.5,2.6,5.6,2.6,9.2c0,3.3-1,6.4-3.1,9.3
				s-5,5.1-8.7,6.5c-3.8,1.4-8.4,2.1-14,2.1c-8.1,0-14.4-1.7-18.8-5.1C98.1,78.7,95.5,73.7,94.6,67.3z"/>
			<path d="M151.5,38.4V28.1h12.3v10.3H151.5z M151.5,86.1v-42h12.3v42H151.5z"/>
			<path d="M191.7,44.1V53h-8.4v16.9c0,3.4,0.1,5.4,0.2,6c0.2,0.6,0.5,1,1.1,1.4s1.3,0.6,2.1,0.6c1.1,0,2.8-0.4,5-1.1l1.1,8.6
				c-2.9,1.1-6.1,1.7-9.8,1.7c-2.2,0-4.2-0.3-6-1s-3.1-1.5-3.9-2.6c-0.8-1.1-1.4-2.5-1.7-4.3c-0.3-1.3-0.4-3.9-0.4-7.8V53h-5.7v-8.9
				h5.7v-8.3l12.4-6.5v14.8H191.7z"/>
			<path d="M220.9,72.8l12.3,1.9c-1.6,4.1-4.1,7.2-7.5,9.3c-3.4,2.1-7.7,3.2-12.8,3.2c-8.1,0-14.1-2.4-18-7.2
				c-3.1-3.8-4.6-8.6-4.6-14.5c0-7,2-12.4,6.1-16.4c4-3.9,9.2-5.9,15.3-5.9c6.9,0,12.4,2.1,16.4,6.2s5.9,10.4,5.8,19H203
				c0.1,3.3,1.1,5.9,3,7.7c1.9,1.8,4.3,2.7,7.1,2.7c1.9,0,3.6-0.5,4.9-1.4C219.3,76.4,220.3,74.9,220.9,72.8z M221.7,61.5
				c-0.1-3.2-1-5.7-2.8-7.3c-1.8-1.7-3.9-2.5-6.4-2.5c-2.7,0-4.9,0.9-6.7,2.6c-1.8,1.8-2.6,4.2-2.6,7.2
				C203.2,61.5,221.7,61.5,221.7,61.5z"/>
			<path class="sitelock-red" d="M238.1,86.1V28.6h13v47.7h32.3v9.8C283.4,86.1,238.1,86.1,238.1,86.1z"/>
			<path class="sitelock-red" d="M283.5,64.5c0-3.7,1-7.3,3-10.7c2-3.5,4.9-6.1,8.6-7.9s7.8-2.7,12.4-2.7c7.1,0,12.8,2.1,17.4,6.2
				c4.5,4.1,6.8,9.3,6.8,15.6c0,6.4-2.3,11.6-6.8,15.8c-4.6,4.2-10.3,6.3-17.2,6.3c-4.3,0-8.4-0.9-12.2-2.6
				c-3.9-1.7-6.8-4.3-8.9-7.7C284.5,73.4,283.5,69.3,283.5,64.5z M296.2,65.1c0,4.2,1.1,7.4,3.3,9.6c2.2,2.2,4.9,3.3,8.1,3.3
				s5.9-1.1,8.1-3.3c2.2-2.2,3.3-5.4,3.3-9.7c0-4.1-1.1-7.3-3.3-9.5c-2.2-2.2-4.9-3.3-8.1-3.3s-5.9,1.1-8.1,3.3
				C297.2,57.8,296.2,61,296.2,65.1z"/>
			<path class="sitelock-red" d="M375.7,56.5l-12.2,2c-0.4-2.2-1.3-3.8-2.8-4.9c-1.4-1.1-3.3-1.7-5.6-1.7c-3.1,0-5.5,1-7.4,2.9
				c-1.8,1.9-2.7,5.1-2.7,9.6c0,5,0.9,8.5,2.8,10.6s4.4,3.1,7.5,3.1c2.3,0,4.3-0.6,5.8-1.8c1.5-1.2,2.5-3.3,3.2-6.2l12.1,1.9
				c-1.3,5-3.7,8.8-7.3,11.4c-3.6,2.6-8.4,3.8-14.4,3.8c-6.8,0-12.3-1.9-16.3-5.8c-4.1-3.9-6.1-9.2-6.1-16.1s2-12.3,6.1-16.2
				c4.1-3.9,9.6-5.8,16.5-5.8c5.7,0,10.2,1.1,13.6,3.3C371.8,48.7,374.3,52,375.7,56.5z"/>
			<path class="sitelock-red" d="M378.3,86.1v-58h12.3v30.8l14.5-14.8h15.2l-16,15.3l17.1,26.7h-13.3l-11.7-18.9l-5.8,5.4V86h-12.3V86.1z"/>
		</g>
		<g>
			<path d="M79.7,29.7c-2.3-11-12-19.2-23.6-19.2s-21.3,8.3-23.6,19.2h-7.9v60h63.8v-60C88.4,29.7,79.7,29.7,79.7,29.7z M56.1,20.5
				c6,0,11.1,3.8,13.2,9.1H43C45,24.2,50.1,20.5,56.1,20.5z M78.1,79.3H34.9V40.1h43.2C78.1,40.1,78.1,79.3,78.1,79.3z"/>
			<polygon class="sitelock-red" points="74.2,36.8 55.8,61.9 46.1,52.8 39.3,61.3 56.6,75.5 82.3,42.3 			"/>
		</g>
	</g>
	<g>
		<path class="sitelock-red" d="M433.9,81.7c0,2.7-2.1,4.7-4.8,4.7c-2.7,0-4.8-2.1-4.8-4.7s2.1-4.7,4.8-4.7S433.9,79.1,433.9,81.7z
			 M425.5,81.7c0,2.1,1.5,3.7,3.7,3.7c2.1,0,3.6-1.7,3.6-3.7c0-2.1-1.5-3.8-3.6-3.8C427,78,425.5,79.7,425.5,81.7z M428.4,84.2h-1.1
			v-4.7c0.4-0.1,1-0.1,1.8-0.1c0.9,0,1.3,0.1,1.6,0.3c0.3,0.2,0.5,0.6,0.5,1c0,0.5-0.4,0.9-1,1.1v0.1c0.5,0.2,0.7,0.5,0.9,1.1
			c0.1,0.7,0.2,1,0.3,1.2h-1.2c-0.1-0.2-0.2-0.6-0.4-1.1c-0.1-0.5-0.4-0.7-1-0.7h-0.5v1.8H428.4z M428.4,81.5h0.5
			c0.6,0,1.1-0.2,1.1-0.7c0-0.4-0.3-0.7-1-0.7c-0.3,0-0.5,0-0.6,0.1V81.5z"/>
	</g>
</g>
</svg>
