<svg xmlns="http://www.w3.org/2000/svg" viewBox="0 0 101 100" id="el_sP0eZu5sE"><style>@-webkit-keyframes el_eOUi_RFJwV_23Wad0xkH_Animation{0%{-webkit-transform: scale(0, 0);transform: scale(0, 0);}9%{-webkit-transform: scale(1, 1);transform: scale(1, 1);}100%{-webkit-transform: scale(1, 1);transform: scale(1, 1);}}@keyframes el_eOUi_RFJwV_23Wad0xkH_Animation{0%{-webkit-transform: scale(0, 0);transform: scale(0, 0);}9%{-webkit-transform: scale(1, 1);transform: scale(1, 1);}100%{-webkit-transform: scale(1, 1);transform: scale(1, 1);}}@-webkit-keyframes el_eOUi_RFJwV_Animation{0%{opacity: 0;}5%{opacity: 0;}9%{opacity: 1;}96.33%{opacity: 1;}98.67%{opacity: 0;}100%{opacity: 0;}}@keyframes el_eOUi_RFJwV_Animation{0%{opacity: 0;}5%{opacity: 0;}9%{opacity: 1;}96.33%{opacity: 1;}98.67%{opacity: 0;}100%{opacity: 0;}}#el_sP0eZu5sE *{-webkit-animation-duration: 10s;animation-duration: 10s;-webkit-animation-iteration-count: infinite;animation-iteration-count: infinite;-webkit-animation-timing-function: cubic-bezier(0, 0, 1, 1);animation-timing-function: cubic-bezier(0, 0, 1, 1);}#el_9OLbGhOeAQ{fill: none;}#el_AeMTZprpgD{fill: #F0DBC2;}#el_taSs_1qc7v{fill: #F2B9B8;}#el_KluIaBkN54{fill: #F2B9B8;}#el_yxDJXiMMKT{fill: #F29C9B;}#el_07_kahAxtu{fill: #F0614A;}#el_cieYGaRg4P{fill: #EA5242;}#el_iBVbDb941E{fill: #965735;}#el_bVAX-09fPU{fill: #EBD3B7;}#el_0_iiqlQJxU{fill: #F2AEAC;}#el_f1nBBfdrxs{fill: #F28685;}#el_eOUi_RFJwV{fill: #D51919;-webkit-animation-name: el_eOUi_RFJwV_Animation;animation-name: el_eOUi_RFJwV_Animation;opacity: 0;}#el_eOUi_RFJwV_uMNdkB6CP{-webkit-transform-origin: 50% 50%;transform-origin: 50% 50%;transform-box: fill-box;-webkit-transform: rotate(0deg);transform: rotate(0deg);}#el_eOUi_RFJwV_23Wad0xkH{-webkit-animation-name: el_eOUi_RFJwV_23Wad0xkH_Animation;animation-name: el_eOUi_RFJwV_23Wad0xkH_Animation;-webkit-transform-origin: 50% 50%;transform-origin: 50% 50%;transform-box: fill-box;-webkit-transform: scale(0, 0);transform: scale(0, 0);}</style><g fill-rule="evenodd" id="el_9OLbGhOeAQ"><path d="M7 47h87v38.18747C94 90.05494 89.971 94 84.99996 94H7V47z" id="el_AeMTZprpgD"/><path d="M7 55h73.49998C82.98541 55 85 57.0144 85 59.5v21c0 2.48542-2.01459 4.5-4.50002 4.5H7V55z" id="el_taSs_1qc7v"/><path d="M7 55h73.49998C82.98541 55 85 57.0144 85 59.5v21c0 2.48542-2.01459 4.5-4.50002 4.5H7V55z" id="el_KluIaBkN54"/><path d="M7 47l52.50004-31c17.85902.0029 32.78994 13.36404 34.48648 30.85983L94 47H7z" id="el_yxDJXiMMKT"/><circle cx="75.5" cy="23.5" r="9.5" id="el_07_kahAxtu"/><path d="M80.41332 15C80.19489 21.7632 74.76322 27.19486 68 27.41329c2.49304 4.36277 8.05054 5.879 12.41332 3.38771 4.3626-2.49303 5.87902-8.05051 3.38772-12.41329A9.10344 9.10344 0 0 0 80.41332 15z" id="el_cieYGaRg4P"/><g id="el_iBVbDb941E"><path d="M77.50528 20.3387H74.5093C74.51845 12.97578 80.54924 7.00887 87.9912 7v2.96415c-5.7881.00598-10.47988 4.64776-10.48592 10.37454zM63.58372 25.21992l-2.11849 2.09586-4.49366-4.447 2.1185-2.09586zM47.11043 31.75979l-4.49437 4.44629-2.1185-2.09587 4.49438-4.44629zM53.09943 40.04121l-2.1185 2.09587-4.49436-4.4463 2.1185-2.09586zM60.58943 31.76479l-4.49437 4.44629-2.1185-2.09587 4.49438-4.44629zM86.05372 37.68708l-4.49366 4.447-2.1185-2.09587 4.49367-4.447zM69.57743 37.68979l-4.49437 4.44629-2.1185-2.09587 4.49438-4.44629zM36.62143 37.69579l-4.49437 4.44629-2.1185-2.09587 4.49438-4.44629z" id="el_8aWgjbwY8I"/></g><path d="M62.08045 55.81253h18.44252c2.4812 0 4.49235 1.97245 4.49235 4.40627v20.56257c0 2.43365-2.01115 4.40627-4.49235 4.40627H27.40276L17 94h68.01532C89.97787 94 94 90.05494 94 85.18747V47H72.48476l-10.4043 8.81253z" id="el_bVAX-09fPU"/><path d="M80.55542 85C83.01023 85 85 82.98558 85 80.49997V59.50003C85 57.01459 83.01023 55 80.55542 55H62.309L28 85h52.55542z" id="el_0_iiqlQJxU"/><path d="M7 68h78v4H7z" id="el_f1nBBfdrxs"/><g id="el_eOUi_RFJwV_23Wad0xkH" data-animator-group="true" data-animator-type="2"><path d="M45.65679 50.01534L.9628 94.58881c-1.24167 1.23833-1.24167 3.24451 0 4.48284C1.58286 99.6916 2.39697 100 3.2095 100c.81411 0 1.62664-.3084 2.24669-.92835l45.03004-44.90862 45.03003 44.90862c.62163.61995 1.43416.92835 2.2467.92835.81252 0 1.62663-.3084 2.24668-.92835 1.24168-1.23833 1.24168-3.24451 0-4.48284l-44.6924-44.57347L100.03962 5.4104c1.24167-1.23832 1.24167-3.2445 0-4.48284-1.24168-1.23675-3.25328-1.23675-4.49338 0L50.4878 45.86766 5.42464.92913c-1.24168-1.23675-3.2517-1.23675-4.49338 0-1.24168 1.23833-1.24168 3.2445 0 4.48284l44.72553 44.60336z" id="el_eOUi_RFJwV"/></g></g><script>(function(){var a=document.querySelector('#el_sP0eZu5sE'),b=a.querySelectorAll('style'),c=function(d){b.forEach(function(f){var g=f.textContent;g&amp;&amp;(f.textContent=g.replace(/transform-box:[^;\r\n]*/gi,'transform-box: '+d))})};c('initial'),window.requestAnimationFrame(function(){return c('fill-box')})})();</script></svg>